Coordinates
version=1
nRows=29
nColumns=24
inDegrees=yes

Units are S.I. units (second, meters, Newtons, ...)
Angles are in degrees.

endheader
time	pelvis_tilt	pelvis_list	pelvis_rotation	pelvis_tx	pelvis_ty	pelvis_tz	hip_flexion_r	hip_adduction_r	hip_rotation_r	knee_angle_r	ankle_angle_r	subtalar_angle_r	mtp_angle_r	hip_flexion_l	hip_adduction_l	hip_rotation_l	knee_angle_l	ankle_angle_l	subtalar_angle_l	mtp_angle_l	lumbar_extension	lumbar_bending	lumbar_rotation
      5.95000000	      8.09094537	     -0.33252877	     -6.30942462	     -1.64525979	      0.75438265	      0.08778954	    -14.91795668	      4.28818427	      6.79778834	      6.95388043	     14.82020162	     -6.47318030	      0.00000000	     17.30409956	      0.13336382	     -3.45629065	    -64.50945223	    -11.15943891	    -39.28243424	      0.00000000	    -26.68378735	     -3.25661578	      2.67167178
      5.96000000	      8.17952139	     -0.12862822	     -6.85539470	     -1.63408380	      0.75407621	      0.08906227	    -15.71519761	      3.95615593	      7.11418425	      6.62892487	     15.30292893	     -6.43452973	      0.00000000	     18.42413497	      0.45252324	     -3.18955261	    -62.36285614	     -9.10417264	    -39.42149979	      0.00000000	    -26.96187412	     -3.62331822	      3.08834338
      5.97000000	      8.15276330	      0.03621431	     -7.29463638	     -1.62275408	      0.75350667	      0.09019401	    -16.34890541	      3.69919014	      7.46641803	      6.21658652	     15.85372732	     -6.55000977	      0.00000000	     19.45073575	      0.75685201	     -2.73612556	    -59.71137784	     -7.13184468	    -39.28729073	      0.00000000	    -27.06257235	     -3.88922694	      3.37212658
      5.98000000	      8.02464115	      0.20897865	     -7.69161929	     -1.61128634	      0.75274913	      0.09121170	    -16.77340949	      3.46686512	      7.77783914	      5.62177122	     16.47654080	     -6.68636842	      0.00000000	     20.31189326	      1.10209320	     -2.13244843	    -56.47769302	     -5.81636443	    -39.58253068	      0.00000000	    -27.02506300	     -4.12461435	      3.57265887
      5.99000000	      7.93461412	      0.29796232	     -8.06242731	     -1.59964373	      0.75190320	      0.09221724	    -17.22513267	      3.33320401	      8.12836105	      4.96561927	     17.06650496	     -7.01047658	      0.00000000	     20.86402564	      1.30514725	     -1.54656599	    -52.73835326	     -4.11972164	    -39.18547731	      0.00000000	    -27.03150148	     -4.27188272	      3.76350885
      6.00000000	      7.69617824	      0.37522535	     -8.46241092	     -1.58784049	      0.75081845	      0.09323722	    -17.41896948	      3.24845434	      8.44297631	      4.11142239	     17.77045051	     -7.26981912	      0.00000000	     21.26056544	      1.46031811	     -0.90937745	    -48.41448926	     -3.22054477	    -39.38002767	      0.00000000	    -26.86736073	     -4.40351976	      3.94837795
      6.01000000	      7.46592399	      0.41499069	     -8.89982816	     -1.57584375	      0.74962937	      0.09433037	    -17.59844159	      3.20860040	      8.74712678	      3.17692595	     18.51016880	     -7.56447687	      0.00000000	     21.32134188	      1.50720299	     -0.32522877	    -43.52825817	     -2.48320714	    -39.41711495	      0.00000000	    -26.72189934	     -4.53123470	      4.18676794
      6.02000000	      7.23076486	      0.40903375	     -9.39457641	     -1.56364355	      0.74830208	      0.09552600	    -17.76175075	      3.21389078	      9.05136279	      2.17256962	     19.26611140	     -7.86538750	      0.00000000	     21.05076798	      1.42433974	      0.17771469	    -38.10105466	     -1.96024064	    -39.25648457	      0.00000000	    -26.57935758	     -4.64706136	      4.51248732
      6.03000000	      7.01905137	      0.30352986	     -9.93873700	     -1.55119836	      0.74681761	      0.09684218	    -17.97578676	      3.31310347	      9.31589218	      1.13577702	     20.01741994	     -8.15025462	      0.00000000	     20.42964233	      1.16323806	      0.59574096	    -32.22198824	     -1.62144490	    -38.80311076	      0.00000000	    -26.46704243	     -4.70359608	      4.94012756
      6.04000000	      6.67377549	      0.09978831	    -10.55436168	     -1.53848292	      0.74495561	      0.09828013	    -18.06945505	      3.51518502	      9.70081178	      0.03923391	     20.80791002	     -8.41766080	      0.00000000	     19.68744031	      0.69387368	      0.85565891	    -26.05494146	     -1.46478504	    -37.98413231	      0.00000000	    -26.17991688	     -4.66029720	      5.47694850
      6.05000000	      6.41942308	     -0.25480705	    -11.19741082	     -1.52546699	      0.74294010	      0.09980506	    -18.34134372	      3.83196018	     10.00098457	     -1.03294025	     21.57712922	     -8.56165692	      0.00000000	     18.68145333	      0.00262257	      0.72568449	    -19.85664975	     -0.75268464	    -35.76302401	      0.00000000	    -25.99498790	     -4.48505934	      6.12818607
      6.06000000	      6.07788661	     -0.74327175	    -11.89628915	     -1.51216285	      0.74058142	      0.10140807	    -18.59103380	      4.26041781	     10.54014407	     -2.12425899	     22.26200769	     -8.79830631	      0.00000000	     17.70436926	     -0.87688865	      0.10070235	    -13.90177247	     -0.09722654	    -32.77424668	      0.00000000	    -25.68123279	     -4.16335123	      6.91311698
      6.07000000	      5.76055869	     -1.32298898	    -12.61658120	     -1.49859782	      0.73804735	      0.10297769	    -18.93020514	      4.73175531	     11.20832222	     -3.22756849	     22.81193425	     -9.13831303	      0.00000000	     16.78670514	     -1.80452449	     -1.19881666	     -8.57839632	      0.89890098	    -28.68522566	      0.00000000	    -25.39043643	     -3.72305771	      7.71874049
      6.08000000	      5.47873550	     -1.86266874	    -13.30369573	     -1.48478694	      0.73545578	      0.10440992	    -19.33055947	      5.11825150	     11.91009693	     -4.35847799	     23.23113915	     -9.51316707	      0.00000000	     16.03517070	     -2.55837393	     -3.17025306	     -4.15464872	      2.03368855	    -23.77396961	      0.00000000	    -25.10799062	     -3.28900471	      8.44541723
      6.09000000	      5.25140678	     -2.27211452	    -13.94279170	     -1.47077317	      0.73292796	      0.10563212	    -19.73056800	      5.33099884	     12.52940098	     -5.60156139	     23.56674372	     -9.81377030	      0.00000000	     15.41108074	     -2.99460334	     -5.26339754	     -0.64015766	      2.97006216	    -19.04375478	      0.00000000	    -24.84575321	     -2.95201969	      9.04723510
      6.10000000	      5.08976347	     -2.53636892	    -14.50236852	     -1.45659348	      0.73053725	      0.10660664	    -20.06115503	      5.37164469	     12.92305237	     -7.07053217	     23.86168234	     -9.93484227	      0.00000000	     14.84884311	     -3.12676988	     -6.80409243	      2.01683271	      3.40866317	    -15.50995173	      0.00000000	    -24.61558937	     -2.72082665	      9.48320088
      6.11000000	      5.09798188	     -2.67670774	    -14.90247775	     -1.44221835	      0.72842855	      0.10729517	    -20.44696422	      5.25549303	     12.96238236	     -8.72640781	     24.01455039	     -9.75266007	      0.00000000	     14.16635779	     -3.00422039	     -7.29202332	      3.92474844	      3.12488405	    -13.80868837	      0.00000000	    -24.53614573	     -2.58436136	      9.65852325
      6.12000000	      5.19994944	     -2.66802533	    -15.19086712	     -1.42765833	      0.72656111	      0.10779168	    -20.72860360	      4.97931516	     12.70559109	    -10.69008682	     24.03300350	     -9.32247613	      0.00000000	     13.49221208	     -2.69014119	     -7.00646318	      5.03063369	      2.36570177	    -13.60547125	      0.00000000	    -24.49441419	     -2.57722188	      9.67138322
      6.13000000	      5.40129415	     -2.50184625	    -15.32292609	     -1.41296471	      0.72494313	      0.10804648	    -20.79167152	      4.54107614	     11.86670169	    -13.13952293	     24.01392593	     -8.30565468	      0.00000000	     12.87507867	     -2.19430223	     -5.92225102	      5.33384458	      0.92867240	    -15.00058428	      0.00000000	    -24.50976799	     -2.70147762	      9.45809443
      6.14000000	      5.69487348	     -2.17147095	    -15.28767885	     -1.39814539	      0.72360214	      0.10807538	    -20.66503995	      3.94387131	     10.74528148	    -16.00232886	     23.70525200	     -7.12184309	      0.00000000	     12.36368287	     -1.50786933	     -4.28466046	      4.87824923	     -1.11530491	    -17.47652861	      0.00000000	    -24.55961019	     -2.96754938	      9.02565299
      6.15000000	      6.11929449	     -1.64790579	    -15.12156368	     -1.38329536	      0.72261909	      0.10788445	    -20.30628023	      3.11090942	      9.26628794	    -19.36954959	     23.06042468	     -5.61753006	      0.00000000	     11.96840354	     -0.57216002	     -2.47833610	      3.71423519	     -3.56422829	    -20.45214708	      0.00000000	    -24.70987539	     -3.42280343	      8.42668281
      6.16000000	      6.64156188	     -0.92434742	    -14.87227985	     -1.36849624	      0.72197100	      0.10757064	    -19.72242803	      2.06851094	      7.87788222	    -23.15472539	     21.81877390	     -4.41332749	      0.00000000	     11.72357788	      0.61566746	     -0.50555113	      1.93118860	     -6.34240689	    -24.05897785	      0.00000000	    -24.92985603	     -4.10046315	      7.73575803
      6.17000000	      7.18932681	      0.03264891	    -14.50185100	     -1.35387914	      0.72160172	      0.10705040	    -18.71478841	      0.72940885	      6.14842335	    -27.48703581	     20.20960722	     -2.82427279	      0.00000000	     11.88393708	      2.11856190	      0.68418104	     -0.63968855	     -8.23303351	    -26.38655597	      0.00000000	    -25.16566268	     -4.98262230	      6.88512830
      6.18000000	      7.69358244	      1.11613338	    -14.04396079	     -1.33952188	      0.72142628	      0.10643313	    -17.32707418	     -0.76347799	      4.48045856	    -32.18359459	     18.02344470	     -1.42107295	      0.00000000	     12.47335789	      3.77394796	      1.01288015	     -3.92202056	     -8.77931866	    -27.23909615	      0.00000000	    -25.37814279	     -5.95595094	      5.96106554
      6.19000000	      8.17797102	      2.26694768	    -13.62279401	     -1.32544566	      0.72139008	      0.10589370	    -15.62741737	     -2.38780732	      3.08150829	    -37.13504510	     15.33175691	     -0.34830672	      0.00000000	     13.21024887	      5.46877702	      0.93126949	     -7.48682494	     -8.39151779	    -27.57573379	      0.00000000	    -25.59068929	     -7.01571090	      5.12362980
      6.20000000	      8.62195014	      3.37049299	    -13.23277240	     -1.31169505	      0.72144162	      0.10548374	    -13.66571117	     -4.02348999	      1.92700624	    -42.18126384	     12.40113585	      0.25790310	      0.00000000	     14.08311994	      7.01427683	     -0.02541812	    -11.27156948	     -6.32137227	    -26.23609943	      0.00000000	    -25.80824224	     -8.03158120	      4.38905503
      6.21000000	      8.92401532	      4.28637161	    -12.98127991	     -1.29825823	      0.72155630	      0.10532992	    -11.44530011	     -5.41072761	      1.37931571	    -47.08005550	      9.13053615	     -0.21630600	      0.00000000	     14.80646346	      8.25520263	     -0.92332191	    -14.65301417	     -3.95395302	    -24.98945486	      0.00000000	    -25.90141030	     -8.87155544	      3.96310964
      6.22000000	      9.21999041	      5.08200999	    -12.89714910	     -1.28508678	      0.72190110	      0.10538211	     -9.12349735	     -6.68563296	      1.23065987	    -51.71101507	      6.12142605	     -1.47971881	      0.00000000	     15.07126355	      9.34872052	     -1.58631078	    -17.27168435	     -1.64845152	    -24.15492594	      0.00000000	    -25.98841164	     -9.63081730	      3.76226645
      6.23000000	      9.53249491	      5.76375223	    -13.00221157	     -1.27220322	      0.72259207	      0.10565445	     -6.75265557	     -7.82877025	      1.45642823	    -55.96450682	      3.60527839	     -3.44874373	      0.00000000	     14.83621806	     10.30081330	     -2.22098173	    -19.05016275	      0.49858272	    -23.44135212	      0.00000000	    -26.08916036	    -10.32986709	      3.77655176
